<?xml version="1.0" encoding="utf-8"?>
<!-- Generator: Adobe Illustrator 15.1.0, SVG Export Plug-In . SVG Version: 6.00 Build 0)  -->
<!DOCTYPE svg PUBLIC "-//W3C//DTD SVG 1.1//EN" "http://www.w3.org/Graphics/SVG/1.1/DTD/svg11.dtd">
<svg version="1.1" id="Camada_1" xmlns="http://www.w3.org/2000/svg" xmlns:xlink="http://www.w3.org/1999/xlink" x="0px" y="0px"
	 width="195px" height="58px" viewBox="0 0 195 58" enable-background="new 0 0 195 58" xml:space="preserve">
<title>Group 3 Copy 4</title>
<g id="UI-2">
	<g id="HP--Copy-14" transform="translate(-235.000000, -2939.000000)">
		<g id="Group-3-Copy-4" transform="translate(236.000000, 2940.000000)">
			<path id="Fill-1" fill="#34391B" stroke="#34391B" d="M108.183,0.652C92.655,0.107,77.045-0.077,61.584,1.478
				c-14.125,1.42-28.154,4.332-41.042,9.55c-3.158,1.279-6.241,2.695-9.221,4.255c-2.641,1.383-5.32,2.83-7.52,4.711
				c-1.975,1.689-3.452,3.767-3.743,6.176c-0.259,2.144,0.362,4.267,1.579,6.14c3.146,4.845,9.218,7.967,14.755,10.527
				c6.285,2.905,12.995,5.089,19.825,6.857c13.334,3.453,27.171,5.513,41.074,6.254c13.888,0.74,27.875,0.149,41.611-1.746
				c13.734-1.894,27.225-5.091,40.113-9.566c6.545-2.272,13.006-4.826,19.109-7.872c3.059-1.526,6.023-3.196,8.82-5.058
				c2.344-1.56,4.992-3.349,5.789-5.917c1.529-4.923-3.864-8.482-8.254-10.609c-5.841-2.829-12.354-4.471-18.941-5.457
				c-6.809-1.019-13.725-1.365-20.621-1.631c-7.957-0.307-15.922-0.458-23.887-0.455c-3.824,0.002-7.646,0.042-11.469,0.114
				c-0.134,0.002-0.117,0.726,0.021,0.724c14.829-0.282,29.755-0.182,44.55,0.796c6.523,0.432,13.064,1.161,19.359,2.73
				c3.047,0.76,6.027,1.719,8.869,2.929c2.829,1.205,5.707,2.613,7.877,4.612c1.063,0.979,1.994,2.137,2.385,3.446
				c0.508,1.703-0.304,3.345-1.519,4.674c-1.976,2.163-4.835,3.82-7.449,5.368c-5.729,3.391-11.978,6.109-18.319,8.559
				c-12.217,4.717-25.052,8.256-38.178,10.586c-13.131,2.332-26.555,3.456-39.964,3.352c-13.406-0.104-26.803-1.437-39.865-4.023
				c-13.241-2.621-26.667-6.327-37.908-13.029C4.553,35.571-1.568,30.45,0.665,24.842c0.975-2.449,3.215-4.357,5.563-5.904
				c2.646-1.743,5.558-3.221,8.473-4.609C26.515,8.701,39.61,5.231,52.904,3.273c14.642-2.157,29.561-2.49,44.386-2.205
				c3.64,0.07,7.276,0.179,10.913,0.306C108.322,1.379,108.334,0.657,108.183,0.652"/>
		</g>
	</g>
</g>
</svg>
